/* XPM */
static const char *freeimage[] = {
/* width height num_colors chars_per_pixel */
"16 16 63 1",
/* colors */
"  c #ffffff",
". c #e9eff6",
"X c #7ca3cb",
"o c #4a81b8",
"O c #3e78b3",
"+ c #5185ba",
"@ c #81a7cd",
"# c #ecf1f7",
"$ c #cfddec",
"% c #d3e0ee",
"& c #6090c0",
"* c #dde8f2",
"= c #f9fafc",
"- c #e0e9f3",
"; c #5f8fc0",
": c #cadbec",
"> c #fcfdfe",
", c #cddded",
"< c #adc7e2",
"1 c #4b81b8",
"2 c #aec8e2",
"3 c #abc6e1",
"4 c #4d83b9",
"5 c #457eb6",
"6 c #abc5e0",
"7 c #b3cae1",
"8 c #4a80b7",
"9 c #b5cbe2",
"0 c #3e79b4",
"q c #3d77b2",
"w c #3a75b1",
"e c #3974b1",
"r c #6b96c4",
"t c #3572af",
"y c #3370ae",
"u c #d2e0ed",
"i c #aec5de",
"p c #598bbf",
"a c #a1bcd9",
"s c #7fa5cc",
"d c #3874b0",
"f c #6d9ac6",
"g c #89add2",
"h c #3975b1",
"j c #6391c1",
"k c #457db5",
"l c #3b76b2",
"z c #a0bddb",
"x c #d5e2ef",
"c c #3672b0",
"v c #9dbbd8",
"b c #7da3cb",
"n c #f3f6fa",
"m c #5588bc",
"M c #84a8cd",
"N c #719bc6",
"B c #7fa6cc",
"V c #427bb4",
"C c #3571af",
"Z c #5286bb",
"A c #a2beda",
"S c #5d8dbf",
"D c #aec6df",
/* pixels */
"    .XoO+@#     ",
"   $OOOOOOO%    ",
"   OO&*=-;OO    ",
"  :OO    >OO,   ",
"  <O1     OO2   ",
"  3O4     5O6   ",
"  7O1     8O9   ",
" 0OOOOqwqOOOOO  ",
" 0OOOqertqOOOO  ",
" 0OOOyu itOOO4  ",
" pOOOta sdOOOf  ",
" gOOOhj klOOOz  ",
" xOOOcv bdOOOn  ",
"  mOOdM7NhOOB   ",
"  =VOOdChOOZ    ",
"    AmOOOSD     "
};
