/* XPM */
static const char *freeimage[] = {
/* width height num_colors chars_per_pixel */
"32 32 38 1",
/* colors */
"  c #ffffff",
". c #3d77b2",
"X c #969696",
"o c #bcbcbc",
"O c #a3a3a3",
"+ c #abc4dd",
"@ c #5e8ebf",
"# c #a5a5a5",
"$ c #d8d8d8",
"% c #fefefe",
"& c #91b3d5",
"* c #437bb5",
"= c #3e78b3",
"- c #447cb5",
"; c #93b4d5",
": c #fdfdfe",
"> c #cadaea",
", c #1f62a7",
"< c #d0deec",
"1 c #ccdbeb",
"2 c #d2dfed",
"3 c #d7d7d7",
"4 c #95b6d8",
"5 c #004d9b",
"6 c #98b8d8",
"7 c #457eb8",
"8 c #4a81b8",
"9 c #fbfbfb",
"0 c #3f7ab6",
"q c #1d61a6",
"w c #93b6d8",
"e c #adc5de",
"r c #ccdcec",
"t c #427ab4",
"y c #cbdaea",
"u c #d0deed",
"i c #92b5d7",
"p c #447db8",
/* pixels */
"   .........................    ",
"   .........................    ",
"   ..                     ..    ",
"   ..                     ..    ",
" XX oo                    ..    ",
" XX oo                    ..    ",
"   ..    OOOOOOOOOOOOOO   ..    ",
"   ..                     ..    ",
" XX oo   OOOOOOOOOOOOOO   ..    ",
" XX oo                    ..    ",
"   ..    OOOOOOOOOOOOOO   ..    ",
"   ..                     ..    ",
" XX oo   OOOOOOOOOOOOOO   ..    ",
" XX oo                    ..    ",
"   ..    OOOOOOOO         ..    ",
"   ..                     ..    ",
" XX oo                    +@    ",
" XX oo   OOOOOOOOO#$%&*==-;:    ",
"   ..              >===,,===<   ",
"   ..    OOOOOOOO$1===,  ,===2  ",
" XX oo            ====,  ,====  ",
" XX oo   OOOOOOO34=====55=====6 ",
"   ..            7====,  ,====8 ",
"   ..    OOOOOOO90====q  q===== ",
" XX oo           0====q  q===== ",
" XX oo           7====q  q====8 ",
"   ..            w====q  q====6 ",
"   ..             ====q  q====  ",
"   ..............er===,  ,===2  ",
"   ..............tyr===,,===u   ",
"                     ip0074     ",
"                                "
};
