/* XPM */
static const char *freeimage[] = {
/* width height num_colors chars_per_pixel */
"192 32 367 2",
/* colors */
"   c #ffffff",
" . c #99b8d7",
" X c #6795c3",
" o c #9dbad8",
" O c #d2d2d2",
" + c #bcbcbc",
" @ c #d4d4d4",
" # c #abc4de",
" $ c #3e78b3",
" % c #b4cbe1",
" & c #dadada",
" * c #aaaaaa",
" = c #dedede",
" - c #894ea7",
" ; c #55ac88",
" : c #df9080",
" > c #d05a43",
" , c #d97967",
" < c #fcf4f3",
" 1 c #85aacf",
" 2 c #8cafd1",
" 3 c #a8a8a8",
" 4 c #cacaca",
" 5 c #b1b1b1",
" 6 c #c0c0c0",
" 7 c #fafafa",
" 8 c #c9c9c9",
" 9 c #cccccc",
" 0 c #ecbdb3",
" q c #cc4c33",
" w c #e09485",
" e c #c8d8e9",
" r c #3f79b3",
" t c #417ab4",
" y c #d0deec",
" u c #e0e0e0",
" i c #ababab",
" p c #e7e7e7",
" a c #eaeaea",
" s c #e6a79b",
" d c #db8271",
" f c #ceddeb",
" g c #5487bb",
" h c #e8eff6",
" j c #d6d6d6",
" k c #c4c4c4",
" l c #e9e9e9",
" z c #b4b4b4",
" x c #f5f5f5",
" c c #fdfdfe",
" v c #faeeeb",
" b c #ce553d",
" n c #e7ada2",
" m c #729dc7",
" M c #497fb7",
" N c #dfe8f2",
" B c #8eb0d2",
" V c #fefefe",
" C c #f7f7f7",
" Z c #afafaf",
" A c #d8d8d8",
" S c #c1c1c1",
" D c #f1f1f1",
" F c #cdcdcd",
" G c #f1f4f7",
" H c #fdf7f7",
" J c #cd5139",
" K c #da7f6e",
" L c #d2614b",
" P c #d1604a",
" I c #e6edf5",
" U c #8aadd1",
" Y c #6e99c6",
" T c #4c82b8",
" R c #fafbfd",
" E c #f8f8f8",
" W c #fbfbfb",
" Q c #adadad",
" ! c #c3c3c3",
" ~ c #b5b5b5",
" ^ c #f4f4f4",
" / c #cbcbcb",
" ( c #bfbfbf",
" ) c #b0b0b0",
" _ c #fdfdfd",
" ` c #fafafb",
" ' c #686868",
" ] c #ebbab0",
" [ c #f1d0ca",
" { c #f1cdc7",
" } c #cc4d34",
" | c #e19687",
".  c #88acd0",
".. c #c3d5e7",
".X c #b1c8e0",
".o c #fefcfb",
".O c #eab6ac",
".+ c #e8aea3",
".@ c #fcfcfc",
".# c #a7a7a7",
".$ c #e5e5e5",
".% c #dcdcdc",
".& c #dddddd",
".* c #d9d9d9",
".= c #fcfcfd",
".- c #dc8676",
".; c #cd4f37",
".: c #f5dbd7",
".> c #f6f9fb",
"., c #477eb6",
".< c #749ec8",
".1 c #5588bc",
".2 c #6291c1",
".3 c #dc8473",
".4 c #d6705c",
".5 c #c6c6c6",
".6 c #acacac",
".7 c #eeeeee",
".8 c #aeaeae",
".9 c #c2c2c2",
".0 c #bababa",
".q c #c5c5c5",
".w c #ce553e",
".e c #fbf3f1",
".r c #cf5942",
".t c #d46a56",
".y c #fefdfd",
".u c #a2bbd7",
".i c #9ebbd8",
".p c #d6e2ef",
".a c #ce533b",
".s c #f9f9f9",
".d c #b9b9b9",
".f c #ededed",
".g c #606060",
".h c #828282",
".j c #c7c7c7",
".k c #f3f3f3",
".l c #838383",
".z c #dee8f2",
".x c #eec6be",
".c c #eec4bc",
".v c #d7aca8",
".b c #5785b7",
".n c #6190c1",
".m c #f3f7fa",
".M c #457db5",
".N c #7da4cc",
".B c #d46853",
".V c #cf5841",
".C c #a2a2a2",
".Z c #b6b6b6",
".A c #f0f0f0",
".S c #e4e4e4",
".D c #e3e3e3",
".F c #d5d5d5",
".G c #b2b2b2",
".H c #b8b8b8",
".J c #5b5b66",
".K c #565661",
".L c #8d8d8d",
".P c #6b6b6b",
".I c #5f5f5f",
".U c #8fb1d3",
".Y c #dd8979",
".T c #ce543c",
".R c #fdfafa",
".E c #d77764",
".W c #c5513c",
".Q c #4a74a7",
".! c #b7cbe0",
".~ c #d6715d",
".^ c #d77460",
"./ c #f2d2cc",
".( c #a0a0a0",
".) c #9d9d9d",
"._ c #dfdfdf",
".` c #a1a1a1",
".' c #cecece",
".] c #bdbdbd",
".[ c #646464",
".{ c #7c7c7c",
".} c #565656",
".| c #7b7b7b",
"X  c #437bb5",
"X. c #f8fafc",
"XX c #da7e6c",
"Xo c #f3e9e8",
"XO c #c7513d",
"X+ c #a76262",
"X@ c #9ebbd9",
"X# c #ecbeb5",
"X$ c #e7ab9f",
"X% c #a4a4a4",
"X& c #e8e8e8",
"X* c #f2f2f2",
"X= c #9c9c9c",
"X- c #d7d7d7",
"X; c #ebebeb",
"X: c #676767",
"X> c #636363",
"X, c #4a80b7",
"X< c #f1d2cd",
"X1 c #ebb8af",
"X2 c #dae1ec",
"X3 c #766680",
"X4 c #eabcb4",
"X5 c #fdf9f8",
"X6 c #d15f49",
"X7 c #d3644f",
"X8 c #a6a6a6",
"X9 c #cfcfcf",
"X0 c #ececec",
"Xq c #d0d0d0",
"Xw c #7a7a7a",
"Xe c #797979",
"Xr c #b7cce2",
"Xt c #ebeef3",
"Xy c #d9958a",
"Xu c #cd5038",
"Xi c #fcf6f5",
"Xp c #79a1ca",
"Xa c #487cb3",
"Xs c #c66b5d",
"Xd c #cad3e1",
"Xf c #dca39a",
"Xg c #efc8c1",
"Xh c #f6f6f6",
"Xj c #b7b7b7",
"Xk c #656565",
"Xl c #467db6",
"Xz c #6b8eb8",
"Xx c #cb6351",
"Xc c #d77562",
"Xv c #ecf1f7",
"Xb c #427bb4",
"Xn c #88a7ca",
"Xm c #ecdcdb",
"XM c #dd8978",
"XN c #7a8cae",
"XB c #cb533d",
"XV c #d87866",
"XC c #a5a5a5",
"XZ c #bebebe",
"XA c #c8c8c8",
"XS c #bbbbbb",
"XD c #8c8c8c",
"XF c #888888",
"XG c #b1c8df",
"XH c #5072a2",
"XJ c #cb4c33",
"XK c #e4ada3",
"XL c #4079b3",
"XP c #e2ebf3",
"XI c #e09384",
"XU c #f1cfc8",
"XY c #92adcd",
"XT c #8f5e69",
"XR c #cc5037",
"XE c #f6e2df",
"XW c #d1d1d1",
"XQ c #696969",
"X! c #b48487",
"X~ c #c94c35",
"X^ c #cec6ce",
"X/ c #f7f9fc",
"X( c #4a81b8",
"X) c #6f9ac6",
"X_ c #d2634d",
"X` c #e2cccc",
"X' c #c08582",
"X] c #efefef",
"X[ c #5d5d5d",
"X{ c #595959",
"X} c #d26a55",
"X| c #a55755",
"o  c #4c81b7",
"o. c #a7c1dc",
"oX c #cbdbea",
"oo c #efc8c0",
"oO c #e29a8c",
"o+ c #d56f5b",
"o@ c #bc5041",
"o# c #537eb0",
"o$ c #e6e6e6",
"o% c #f9eae7",
"o& c #be9092",
"o* c #457bb3",
"o= c #578abd",
"o- c #5d8dbf",
"o; c #cd5037",
"o: c #f6dfdb",
"o> c #ecbcb3",
"o, c #b39197",
"o< c #b0c7e0",
"o1 c #8b8b8b",
"o2 c #858585",
"o3 c #f3e6e4",
"o4 c #adc2da",
"o5 c #95b5d5",
"o6 c #c0d3e6",
"o7 c #fbf0ef",
"o8 c #cf573f",
"o9 c #d56e5a",
"o0 c #d15e47",
"oq c #d26651",
"ow c #5587bb",
"oe c #d3d3d3",
"or c #b3b3b3",
"ot c #808080",
"oy c #d6715e",
"ou c #d36550",
"oi c #769fc9",
"op c #78a0c9",
"oa c #5386bb",
"os c #4e83b9",
"od c #e9b4aa",
"of c #e2998b",
"og c #de8d7e",
"oh c #f0ccc5",
"oj c #d6e2ee",
"ok c #dbdbdb",
"ol c #818181",
"oz c #e19789",
"ox c #f5f8fb",
"oc c #447cb5",
"ov c #598bbd",
"ob c #d56b57",
"on c #f4f7fa",
"om c #7ca3cb",
"oM c #9e9e9e",
"oN c #737373",
"oB c #6a6a6a",
"oV c #e9b3a8",
"oC c #f4d9d3",
"oZ c #fbfcfd",
"oA c #fcf7f6",
"oS c #7ea5cc",
"oD c #585858",
"oF c #6392c1",
"oG c #6694c2",
"oH c #d05c45",
"oJ c #d7e3ef",
"oK c #e1e1e1",
"oL c #6f6f6f",
"oP c #de8d7d",
"oI c #f2f6f9",
"oU c #96b5d5",
"oY c #edc0b7",
"oT c #f0cac3",
"oR c #87abcf",
"oE c #a3a3a3",
"oW c #df8f7f",
"oQ c #7d7d7d",
"o! c #cddceb",
"o~ c #5387bb",
"o^ c #9b9b9b",
"o/ c #4d83b9",
"o( c #85a9cf",
"o) c #a9a9a9",
"o_ c #777777",
"o` c #9a9a9a",
"o' c #f8e7e4",
"o] c #d97b68",
"o[ c #e5edf4",
"o{ c #90b1d3",
"o} c #a5c0db",
/* pixels */
"                                                                                                                                                                                                                                                                                                                                                                                                ",
"                                                                                                                                                                     . X o                                                                                                                                                                                           O + @                      ",
"                                                                                                                                                                   # $ $ $ %                                                                                                                                                                                       & * * * =                    ",
"   - - - - - - - - - - - - - - - - - - - - - - - - - - - - - -     ; ; ; ; ; ; ; ; ; ; ; ; ; ; ; ; ; ; ; ; ; ; ; ; ; ; ; ; ; ;                   : > , <           1 $ $ $ 2                       3 3 3 3 3 3 3 3 3 3 3 3 3 3 3 3 3 3 3 3 3 3 3 3 3 3 3 3 3 3     + + + + + + + + + + + + + + + + + + + + + + + + + + + + + +                   4 5 6 7           8 * * * 9                    ",
"   - - - - - - - - - - - - - - - - - - - - - - - - - - - - - -     ; ; ; ; ; ; ; ; ; ; ; ; ; ; ; ; ; ; ; ; ; ; ; ; ; ; ; ; ; ;                 0 q q q w           e r $ t y                       3 3 3 3 3 3 3 3 3 3 3 3 3 3 3 3 3 3 3 3 3 3 3 3 3 3 3 3 3 3     + + + + + + + + + + + + + + + + + + + + + + + + + + + + + +                 u i i i 9           p * * i a                    ",
"   - - - - - - - - - - - - - - - - - - - - - - - - - - - - - -     ; ; ; ; ; ; ; ; ; ; ; ; ; ; ; ; ; ; ; ; ; ; ; ; ; ; ; ; ; ;                 s q q q d           f $ g t h                       3 3 3 3 3 3 3 3 3 3 3 3 3 3 3 3 3 3 3 3 3 3 3 3 3 3 3 3 3 3     + + + + + + + + + + + + + + + + + + + + + + + + + + + + + +                 j i i i k           l * z i x                    ",
" c - - - - - - - - - - - - - - - - - - - - - - - - - - - - - -   c ; ; ; ; ; ; ; ; ; ; ; ; ; ; ; ; ; ; ; ; ; ; ; ; ; ; ; ; ; ;                 v b q q n           m M N t B                     V 3 3 3 3 3 3 3 3 3 3 3 3 3 3 3 3 3 3 3 3 3 3 3 3 3 3 3 3 3 3   V + + + + + + + + + + + + + + + + + + + + + + + + + + + + + +                 C Z i i A           S Z D i F                    ",
" G - - - - - - - - - - - - - - - - - - - - - - - - - - - - - -   G ; ; ; ; ; ; ; ; ; ; ; ; ; ; ; ; ; ; ; ; ; ; ; ; ; ; ; ; ; ;                 H J K L P H       I t U   Y T R                   E 3 3 3 3 3 3 3 3 3 3 3 3 3 3 3 3 3 3 3 3 3 3 3 3 3 3 3 3 3 3   E + + + + + + + + + + + + + + + + + + + + + + + + + + + + + +                 W Q ! ~ z W       ^ i /   ( ) _                  ",
" ` '                                                       V '   ` '                                                       V '                 ] q [ { } |      .  t h  .. $.X          .o.O.+ H.@.#                                                       V.#  .@.#                                                       V.#                 = i l p i F       / i x  .$ *.%           _.&.* W",
".= '                                                       V '  .= '                                                       V '                 K >    .-.;.:  .>.,.<      .1.2          .3 q q.4 _.#                                                       V.#   _.#                                                       V.#                 ! 5    .5.6.7   W.8.9       z.0          .q i i +",
".@ '                                                       V '  .@ '                                                       V '              .o.w.-    .e.r.t.y.u $ y      .i $.p        .a q q q _.#                                                       V.#   _.#                                                       V.#               _ Z.5    .s 5.d V @ * a       @ *.f        .8 i i i",
".@ '                                                       V '  .@ '      .g.g.g.g.g.g    .g.g.g.h.j.k      .k.5.l.g.g     V '     N.z      .x q.c       ] q.v.b.n        .m.M.N        .B q q.V _.#                                                       V.#   _.#      .C.C.C.C.C.C    .C.C.C.Z = E       E =.Z.C.C     V.#     D.A      .S i.D       = i.F.G.d         7 Q.5        .H i i )",
".@ '         _ _ _.@.@.@ W W 7.J.K.K.K.K.K.K.K.K.K.K.J     V '  .@ '                             _ 8.L.P.I.P.L 8 V         V '  .U $ $ 2    .Y.T.R        .E.W.Q.!          .N.M.m      .~.a.^./ _.#         _ _ _ _ _ _.@.@.@.(.).).).).).).).).).).(     V.#   _.#                             V._ + 3.` 3 +._ V         V.#  .' * * 9    .j.8 _         ( i * =          .5 Q 7       +.8.] a",
".@ '            .K.K.K.K.@ W W.K                    .K     V '  .@ '      .g.g.g.g.g.g    .[ A a.{.}.}.}.}.}.}.}.| a &     V '  X  $ $ tX.   >XX          XoXOX+.y          .p $X@    X# qX$     _.#            .).).).) _.@.@.)                    .)     V.#   _.#      .C.C.C.C.C.C    X%X&X*.GX=X=X=X=X=X=X=.GX* l     V.#  .6 * * i.@   5.9           ^.6 Z V          .f * @     u iX-    ",
" _ '         V _ _ _ _.@.@ W W.K                    .K     V '   _ '                        X;X:.}X>.8 =.7._.8.[.}X: l     V '  X, $ $., cX< qX1          X2X3 qX4            .n.1  X5X6X7.y     V.#         V _ _ _ _ _ _.@.@.)                    .)     V.#   V.#                        .kX8X=X%X9X; xX0XqX%X=X8X*     V.#   Z * *.8 V a i =          .f * i._            .d z  .@ z.Z V    ",
" _ '        .K.K.K.K.K.K.@.@ W.K                    .K     V '   _ '      .g.g.g.g.g.g     V.|.}Xw.A.s x.k x.s D.|.}Xe _   V '  Xr T t MXtXyXuXi          XpXaXs > <          .X $XdXf qXg       V.#        .).).).).).) _ _.@.)                    .)     V.#   V.#      .C.C.C.C.C.C     V.GX= 5Xh W.s E.s WXh 5X= ) V   V.#  ._ ) i Z x 9 Q W           k QXj 5 7          .% *.S O i.$      ",
" _ '         V V V _ _ _ _.@.@.J.K.K.K.K.K.K.K.K.K.K.J     V '   _ '                       8.}Xk DXh.k.k.k.k.kXh DXk.}.5   V '       NXlXzXxXc          XvXbXnXm.;XM           R TXNXBXV         V.#         V V V _ _ _ _ _ _.(.).).).).).).).).).).(     V.#   V.#                      ._X=X%Xh.s E E E E E.s CXCX=.&   V.#       D Q.0 ~XZ          Xh.6XA.f.6.j           _ )XS Q 6        ",
".@ '                                                       V '  .@ '      .g.g.g.g.g.g    XD.} 5.s.k.k.k.k.k.k.k.s.G.}XF   V '        XGXHXJXK           BXLXP  XI }XU          XYXTXRXE         _.#                                                       V.#   _.#      .C.C.C.C.C.C    XSX=XW W E E E E E E E W OX=.d   V.#        .% * i A           F iX*   9 iX&           9 *.6 D        ",
" W '                                                       V '   W '                      XQ.}.D x.k.k.k.k.k.k.k x.$.}Xk   V '          X!X~X^        X/X(X)    X5X6X_.R        X`X~X'           _.#                                                       V.#   _.#                      .#X=.7.s E E E E E E E.sX]X=X%   V.#           ( * u         W Z 6    .@ z ~ _        .$ *.9          ",
" W '                                                       V '   W '      .g.g.g.g.g.g    X[.}.k.k.k.k.k.k.k.k.k.k x.}X{   V '          X}X|o Xv      o. $oX      oo qoO        o+o@o# R         _.#                                                       V.#   _.#      .C.C.C.C.C.C    .(X= E E E E E E E E E E.sX=.)   V.#          .H * ZXh       A *X&      .$ iX9        XS * ) _        ",
" W '                                                       V '   W '                      XQ.}.$ x.k.k.k.k.k.k.k xo$.}X>   V '        o% }o&o* X      o=o-           do;o:    o> qo, $o<         _.#                                                       V.#   _.#                      .#X=X].s E E E E E E E.s.AX=X%   V.#         x i.5 i +       ~Xj           k.6.A    ._ i.q *.%        ",
" W '                  .J.K.K.K.K.K.K.K.K.K.K.K.K.K.K.J     V '   W '      .g.g.g.g.g.g    o1.} z.s.k.k.k.k.k.k.k.s.Z.}o2   V '         s qo3o4 $o5  o6 $o<          o7o8o9  X5o0oq.yow.n         _.#                  .(.).).).).).).).).).).).).).).(     V.#   _.#      .C.C.C.C.C.C    XSX=oe W E E E E E E E W @X=Xj   V.#         j iX*.* *Xq  .D *.%           E )XS  .@orXj Vor.d        ",
" W '    .K V.K V.K    .Kototototototot              .K     V '   W '                      XA.}X: ^Xh.k.k.k.k.kXh xXQ.}.9   V '        oyou    oi topoaos R            od qofog qoh  X@ $oj       _.#    .) V.) V.)    .) ~ ~ ~ ~ ~ ~ ~              .)     V.#   _.#                      ._X=X8 E.s E E E E E.s.s.#X=ok   V.#         +Xj     ! i !or 5 _            .% iX9 8 i p   @ *.f      ",
" W '      .K  .K      .Kototototototot              .K     V '   W '      .g.g.g.g.g.g     _Xw.}ol x.s x.k x.s xol.}X{.7   V '      .e.;oz    oxoc $ $ov                X_ q qob    on.Mom      .@.#      .)  .)      .) ~ ~ ~ ~ ~ ~ ~              .)     V.#  .@.#      .C.C.C.C.C.C     V 5X= ~.s W.s E.s W.s ~X=oM x   V.#      .s.6.'     W Q * *.Z                 ~ i i.d     7 Q.q      ",
" 7 '                  .J.K.K.K.K.K.K.K.K.K.K.K.K.K.K.J     V '   7 '                         lX:.}XQ.H l.s l.dXQ.}.}.}oN D VoB      oV qoC    X. $ $ $ roZ            oA } q q J      oSoc.m    .@.#                  .(.).).).).).).).).).).).).).).(     V.#  .@.#                        X*X8X=.#.FX* WX* j.#X=X=X= QXh V 3      ok i.f    .@ * * * * _             W i i i Q      .5 Q 7    ",
" 7 '                                                       V '   7 '      .g.g.g.g.g.g    Xk & lXe.}.}.}.}.}.}.}oD.}.}.}oN D 9       ,o0        oF $ $oG              .o b q qoH      oJ $ o    .@.#                                                       V.#  .@.#      .C.C.C.C.C.C    XC lX* )X=X=X=X=X=X=X=.)X=X=X= QXhoK       6or        .0 * *XS               _ Z i i.G      .f * @    ",
" 7 '                                                       V '   7 '                             _ kXF.[X{X>o2 6 aoL.}.}.}oN D    o>.aoP        oIo5oU.m                oY PX_oT        .nX(oRon.@.#                                                       V.#  .@.#                             V.%.dX%.)oEXj &X* *X=X=X= QXh    ._.8 8        .sXqXW 7                oK z ~o$        .d Z 4 7",
" W '                                                       V '   W '                                              .foL.}.}.}oN DoW q q.B                                              oIXl $ $oi _.#                                                       V.#   _.#                                               ^ *X=X=X= QXh 4 i i.H                                              .s Q * * !",
" _ '                                                       V '   _ '                                                .foL.}.}.}oQ > q q qo:                                            o! $ $ $o~ V.#                                                       V.#   V.#                                                 ^ *X=X=X=or 5 i i i.A                                             l * * *or",
"   ' ' ' ' ' ' ' ' ' ' ' ' ' ' ' ' ' ' ' ' ' ' ' ' ' ' ' ' ' '     ' ' ' ' ' ' ' ' ' ' ' ' ' ' ' ' ' ' ' ' ' ' ' '.PXW.foL.}.}o^.4 q q.aXi                                            X.o/ $ $o(  .#.#.#.#.#.#.#.#.#.#.#.#.#.#.#.#.#.#.#.#.#.#.#.#.#.#.#.#.#.#    .#.#.#.#.#.#.#.#.#.#.#.#.#.#.#.#.#.#.#.#.#.#.#.#o).S ^ *X=X= k + i i.8 W                                            .@ 5 * * 8",
"                                                                                                                        .fo_o` Vo'o].4oT                                                o[o{o}oZ                                                                                                                         ^ Z k V ^ S +o$                                                .k.'X- _",
"                                                                                                                                                                                                                                                                                                                                                                                                "
};
