/* XPM */
static const char *freeimage[] = {
/* width height num_colors chars_per_pixel */
"96 16 116 2",
/* colors */
"   c #ffffff",
" . c #adc5de",
" X c #4e83b9",
" o c #cedbeb",
" O c #427ab4",
" + c #417ab4",
" @ c #fdfdfd",
" # c #fafafa",
" $ c #fbfbfb",
" % c #fefefe",
" & c #929292",
" * c #545454",
" = c #7f7f7f",
" - c #ededed",
" ; c #969696",
" : c #5a5a5a",
" > c #848484",
" , c #eeeeee",
" < c #4079b3",
" 1 c #3e78b3",
" 2 c #ccdbeb",
" 3 c #9a9b9c",
" 4 c #6e6e6e",
" 5 c #707070",
" 6 c #797979",
" 7 c #959595",
" 8 c #b9b9b9",
" 9 c #7b7b7b",
" 0 c #bcbcbc",
" q c #818181",
" w c #efefef",
" e c #d2cfcb",
" r c #787878",
" t c #c8c4be",
" y c #fbfbfa",
" u c #dee8f2",
" i c #dce7f1",
" p c #7ba1c5",
" a c #6a6d6e",
" s c #f8f8f8",
" d c #9f9f9f",
" f c #7c7c7c",
" g c #7a7a7a",
" h c #bbb7b1",
" j c #3371af",
" k c #696d6f",
" l c #989898",
" z c #e2e2e2",
" x c #c9c9c9",
" c c #b8b8b8",
" v c #808080",
" b c #bbbbbb",
" n c #858585",
" m c #b4b4b4",
" M c #3d77b3",
" N c #919191",
" B c #eab766",
" V c #c9c8c5",
" C c #fdfcfb",
" Z c #fdfdfc",
" A c #f6f6f6",
" S c #8b8a87",
" D c #f4e1c1",
" F c #e9b665",
" G c #9fbbd9",
" H c #5788bd",
" J c #2767aa",
" K c #8e8e8c",
" L c #eecc97",
" P c #6f99c6",
" I c #7da4cc",
" U c #999999",
" Y c #fefefd",
" T c #ebbd75",
" R c #4a7fb7",
" E c #b1b0af",
" W c #f7f2e9",
" Q c #eabb6f",
" ! c #777777",
" ~ c #f1e0c6",
" ^ c #efca90",
" / c #e0dedb",
" ( c #eed1a2",
" ) c #f4dbb4",
" _ c #7b7b7a",
" ` c #f2f1ef",
" ' c #ecc27f",
" ] c #f9ecd8",
" [ c #5b6d7d",
" { c #727272",
" } c #757575",
" | c #8f8f8f",
".  c #8f8e8b",
".. c #f9f6f1",
".X c #e9b768",
".o c #e9b869",
".O c #fdfbf7",
".+ c #3f78b3",
".@ c #e8eff6",
".# c #e8eff5",
".$ c #447db6",
".% c #2e6dab",
".& c #306da9",
".* c #2f6daa",
".= c #316da8",
".- c #366da3",
".; c #486d90",
".: c #f4dcb7",
".> c #bab8b4",
"., c #f7f1e6",
".< c #eab96b",
".1 c #f0cc94",
".2 c #6795c3",
".3 c #c7d8e9",
".4 c #fdfdfe",
".5 c #fafbfd",
/* pixels */
"                                                                   . X o O O O O O O O O O +         @ # $ %                         & * * * * * * * = -           ; : : : : : : : > ,          ",
"                                                                   < 1 2 1 1 1 1 1 1 1 1 1 1       3 4 5 5 4 6 7 7 6 4 5 5 4 3       * @           * 8 9 ,         : @           : 0 q w        ",
" e r r r r r t y                 e r r r r r t y                   1 1 2 1 1 u i i i i u 1 1     p a s     % , d d , %     s a p     * @           * % 8 f ,       : @           : % 0 q w      ",
" g r r r r r r h                 g r r r r r r h                   1 1 2 1 1 i i i i i i 1 1     j k s l l l z x x z l l l s k j     * @           * %   c v       : @           : %   b n      ",
" 6 r r r r r r r r r r r r r v v 6 r r r r r r r r r r r r r m     1 1 2 1 1 i i i i i i 1 1     M k s         x x         s k M     * @           N * * * *       : @           7 : : : :      ",
"                                 r r r r r r r r r r r r r r r     1 1 2 1 1 1 1 1 1 1 1 1 1     M k s l l l z x x z l l l s k M     * @             % % @ *       : @             % % @ :      ",
" B B B B B B B B B B B B B B B B r 9 V       C C C C Z             1 1 2 1 1 1 1 1 1 1 1 1 1     M k s         x x         s k M     * @                 % *       : @                   A      ",
" B B B B B B B B B B B B B B B B r S   D F B B B B B F F F F F F   1 1 2 1 1 1 1 1 1 1 1 1 1     M k s l l l z x x z l l l s k M     * @                 % *       : @             G H J H G    ",
" B B B B B B B B B B B B B B B B r K   L F B B B B B F F F F F F   1 1 2 1 1 1 1 1 1 1 1 1 1     M k s         x x         s k M     * @                 % *       : @           P J J I J J P  ",
" B B B B B B B B B B B B B B B B r U Y T F B B B B B F F F F F F   1 1 2 1 1 1 1 1 1 1 1 1 1     M k s l l l z x x z l l l s k M     * @                 % *       : @         G J J I   I R J G",
" B B B B B B B B B B B B B B B B r E W F F B B B B B F F F F F Q   1 1 2 1 1 1 1 1 1 1 1 1 1     M k s         x x         s k M     * @                 % *       : @         H J J J I J J J H",
" B B B B B B B B B B B B B B B B ! V ~ F F F F F F F F F F F F ^   1 1 2 1 1 1 1 1 1 1 1 1 1     M k s l l l z x x z l l l s k M     * @                   *       : @         J J J I   I J J J",
" B B B B B B B B B B B B B B B B ! / ( F F F F F F F F F F F F )   1 1 2 1 1 1 1 1 1 1 1 1 1     M k s         x x         s k M     * @                   *       : @         H J J I   I J J H",
" B B B B B B B B B B B B B B B B _ ` ' F F F F F F F F F F F F ]   1 1 2 1 1 1 1 1 1 1 1 1 1     M [ { 5 5 } v | | v } 5 5 { [ M     * @                   *       : @         G J J I   I J J G",
" B B B B B B B B B B B B B B B B. ...X F F F F F F F F F F F.o.O  .+.@                    .#    .$.%.&.*.*.=.-.;.;.-.=.*.*.&.%.$     * @                   *       ; : : : : f @ P J J I J J P  ",
".: B B B B B B B B B B B B B B.:.>.,.< B F B B B B B B B B B.1    .2 1 1 1 1 1 1 1 1 1 1 1.3    .4.5.5.5.5.5.5.5.5.5.5.5.5.5.5.4     & * * * * * * * * * * |                       G H J H G    "
};
